<svg xmlns="http://www.w3.org/2000/svg" width="50" height="57" viewBox="0 0 50 57" fill="none"><path d="M48.5385 39.3089C48.5359 39.3089 48.5334 39.308 48.5301 39.308L46.8333 39.0476C46.6317 38.3942 46.3713 37.7717 46.0547 37.1871L47.0677 35.8138C47.5784 35.1309 47.5103 34.1632 46.9072 33.5618L45.4642 32.1263C44.8737 31.5039 43.9043 31.4241 43.2105 31.9398L41.8279 32.9579C41.2198 32.6328 40.5949 32.3749 39.9615 32.1851L39.7045 30.4984C39.5861 29.6551 38.8503 29.0193 37.9926 29.0193H35.9448C35.1015 29.0193 34.3808 29.6282 34.2254 30.4951L33.9793 32.1885C33.7088 32.2708 33.4551 32.3623 33.2124 32.4656C33.0923 32.5018 32.9822 32.5454 32.9192 32.5799C32.6504 32.6866 32.3808 32.8117 32.1137 32.9545L30.7303 31.9356C30.0373 31.4325 29.0696 31.5123 28.4901 32.1095L27.0462 33.5542C26.6744 33.9149 26.5049 34.4126 26.5402 34.9019C26.153 34.8502 25.7644 34.814 25.3746 34.792V31.3561C28.2412 29.1645 30.0571 25.3974 30.2539 21.2647H31.3602C32.7874 21.2647 33.949 20.103 33.949 18.6759V17.8031C33.949 16.4311 32.8721 15.3162 31.521 15.2314C31.178 10.3964 27.9129 6.28097 23.2688 4.86426V2.51571C23.2688 1.12892 22.1399 0 20.7531 0H18.8985C17.5117 0 16.3828 1.12892 16.3828 2.51571V4.86426C11.7387 6.28097 8.47356 10.3964 8.13059 15.2314C6.7795 15.3162 5.70255 16.4311 5.70255 17.8031V18.6759C5.70255 20.103 6.86423 21.2647 8.29133 21.2647H9.37983C9.57691 25.4077 11.4164 29.1938 14.2744 31.3655V34.8076C6.33153 35.2509 0 41.8376 0 49.8942V53.1028C0 55.123 1.64382 56.7668 3.66479 56.7668H10.6635C10.6664 56.7668 10.6689 56.7685 10.6718 56.7685C10.6747 56.7685 10.6772 56.7668 10.6802 56.7668H29.8937C29.8967 56.7668 29.8991 56.7685 29.9021 56.7685C29.905 56.7685 29.9075 56.7668 29.9104 56.7668H35.9792C37.5564 56.7668 38.9665 55.7321 39.4476 54.2383C39.5668 54.0463 39.6621 53.8357 39.7028 53.5942L39.9624 51.8983C40.6091 51.7001 41.2307 51.4439 41.8195 51.1314L43.2189 52.1587C43.9144 52.6568 44.8804 52.572 45.444 51.9765L46.919 50.5183C47.3877 50.0336 47.5364 49.3415 47.3079 48.7359C47.26 48.5771 47.1802 48.4209 47.071 48.2739L46.0538 46.8946C46.3713 46.3041 46.6326 45.6817 46.8325 45.0349L48.5217 44.7771C49.365 44.6561 50 43.9237 50 43.0736V41.0182C50 40.1799 49.3717 39.445 48.5385 39.3089ZM38.9993 45.5468C38.2901 43.1587 36.9944 40.98 35.2123 39.198C35.0668 39.0518 34.914 38.9118 34.7615 38.7721C35.4168 38.3234 36.1861 38.0766 37.0032 38.0766C39.2131 38.0766 41.0115 39.8742 41.0115 42.0841C41.0115 43.5239 40.2124 44.8378 38.9993 45.5468ZM16.7835 32.7769C16.8523 32.802 16.9202 32.829 16.9895 32.8522C17.9007 33.1626 18.849 33.3266 19.8082 33.3266C20.774 33.3266 21.7306 33.1601 22.6517 32.8456C22.7211 32.8222 22.7893 32.7954 22.8583 32.7703C23.0701 32.6922 23.2794 32.6061 23.4867 32.5119C23.542 32.4868 23.5995 32.4692 23.6544 32.443V35.2594L19.8305 38.7122L15.9947 35.2099V32.4539C16.0551 32.4827 16.1185 32.5021 16.1794 32.5295C16.3787 32.6195 16.5799 32.702 16.7835 32.7769ZM16.3828 6.68552V9.60169C16.3828 10.0771 16.7675 10.4618 17.2429 10.4618C17.7183 10.4618 18.103 10.0771 18.103 9.60169V5.52028V2.51571C18.103 2.07724 18.46 1.72026 18.8985 1.72026H20.7531C21.1916 1.72026 21.5486 2.07724 21.5486 2.51571V5.52028C21.5486 5.66633 21.5953 5.79957 21.6611 5.92173V9.98387C21.6611 10.4593 22.0458 10.844 22.5213 10.844C22.9967 10.844 23.3814 10.4593 23.3814 9.98387V6.72763C26.9691 8.08208 29.4723 11.3665 29.7987 15.2144H9.85284C10.1827 11.327 12.7347 8.01325 16.3828 6.68552ZM7.42281 18.6759V17.8031C7.42281 17.3244 7.81255 16.9355 8.29133 16.9355H31.3602C31.839 16.9355 32.2288 17.3244 32.2288 17.8031V18.6759C32.2288 19.1547 31.839 19.5444 31.3602 19.5444H29.4342H10.1922H8.29133C7.81255 19.5444 7.42281 19.1547 7.42281 18.6759ZM11.0859 21.2647H28.5548C28.3565 25.0202 26.6598 28.4111 24.0265 30.2389C23.8389 30.3695 23.6406 30.4716 23.4461 30.584C21.1537 31.8959 18.4059 31.8881 16.1369 30.5545C15.9653 30.4521 15.7903 30.3631 15.6226 30.2456C12.9968 28.438 11.285 25.0286 11.0859 21.2647ZM35.9792 55.0465H30.7622V46.7006C30.7622 46.2252 30.3775 45.8405 29.9021 45.8405C29.4266 45.8405 29.0419 46.2252 29.0419 46.7006V55.0465H11.5319V46.7006C11.5319 46.2252 11.1472 45.8405 10.6718 45.8405C10.1964 45.8405 9.81168 46.2252 9.81168 46.7006V55.0465H3.66479C2.59298 55.0465 1.72026 54.1746 1.72026 53.1028V49.8942C1.72026 42.6102 7.55305 36.6649 14.8408 36.4893L19.2445 40.5109C19.4092 40.6612 19.6166 40.736 19.8249 40.736C20.0316 40.736 20.2374 40.6621 20.4012 40.5142L20.4421 40.4773L24.8681 36.4899C25.9013 36.5168 26.9319 36.6613 27.934 36.9208C29.7551 37.3996 31.4266 38.248 32.91 39.4483C33.2897 39.7473 33.6542 40.0716 33.9952 40.4134C35.7953 42.2135 37.0359 44.468 37.5844 46.9375C37.8036 47.8976 37.9145 48.8921 37.9145 49.8942V53.1028C37.9145 53.2912 37.8893 53.4557 37.8445 53.609C37.839 53.6244 37.8327 53.6395 37.828 53.6556C37.592 54.4745 36.8318 55.0465 35.9792 55.0465ZM48.2797 41.0182L48.2697 43.0753L46.0244 43.4188C45.6826 43.4709 45.4045 43.7238 45.3205 44.0589C45.1013 44.93 44.7569 45.7514 44.2958 46.5024C44.1118 46.8006 44.1278 47.1811 44.3361 47.4633L45.6893 49.2995C45.6893 49.2986 45.6666 49.2659 45.6515 49.1987C45.6632 49.2491 45.6758 49.2608 45.696 49.3087L44.2294 50.7661L42.389 49.4154C42.2378 49.3053 42.0589 49.2491 41.88 49.2491C41.7263 49.2491 41.5726 49.2902 41.4348 49.3734C40.8729 49.7127 40.2698 49.9891 39.6348 50.1974V49.8942C39.6348 49.3817 39.6012 48.8723 39.5498 48.3658C39.5338 48.2079 39.5092 48.053 39.4883 47.8961C39.4613 47.6936 39.4441 47.4893 39.4088 47.2886C41.4248 46.3604 42.7317 44.3563 42.7317 42.0841C42.7317 38.9259 40.1623 36.3564 37.0032 36.3564C35.6836 36.3564 34.4035 36.8192 33.3888 37.6466C33.2509 37.5457 33.105 37.4596 32.9643 37.3638C32.8142 37.2616 32.6649 37.1587 32.5117 37.0623C32.2233 36.8808 31.9275 36.7142 31.6285 36.5535C31.4963 36.4825 31.3674 36.4049 31.2331 36.338C30.7984 36.1212 30.3549 35.9225 29.9 35.7491C29.8424 35.7272 29.7821 35.7118 29.7242 35.6906C29.3761 35.5628 29.0255 35.4406 28.6665 35.3383L28.2532 34.7798L29.7156 33.3241L31.5476 34.6739C31.8315 34.8839 32.2145 34.8982 32.5144 34.71C32.8588 34.495 33.2082 34.3161 33.6206 34.1489C33.6592 34.1296 33.692 34.117 33.7248 34.1078C33.7659 34.0969 33.8062 34.0826 33.8457 34.0658C34.1716 33.9238 34.532 33.8071 34.9469 33.7096C35.2905 33.6282 35.55 33.3451 35.6004 32.9957L35.9448 30.7395L38.0027 30.7479L38.3463 33.0015C38.3992 33.3501 38.6596 33.6307 39.0031 33.7105C39.833 33.902 40.6537 34.2405 41.4432 34.7176C41.7423 34.8982 42.1194 34.8814 42.3983 34.6739L44.2328 33.3275L45.6868 34.7873L44.3361 36.6193C44.1269 36.9032 44.1118 37.2846 44.2974 37.5836C44.7544 38.3194 45.0979 39.14 45.3205 40.0237C45.4045 40.3588 45.6826 40.6117 46.0244 40.6637L48.2697 41.0081L48.3999 40.1581L48.2797 41.0182Z" fill="white"></path></svg>