<svg xmlns="http://www.w3.org/2000/svg" width="40" height="55" viewBox="0 0 40 55" fill="none"><path d="M11.9206 54.3715C11.6594 54.3717 11.403 54.3004 11.1794 54.1654C10.9557 54.0303 10.7733 53.8367 10.6518 53.6054L8.55811 49.617L4.27048 50.9875C4.0089 51.0716 3.72866 51.0786 3.46321 51.0077C3.19775 50.9369 2.95828 50.7912 2.77335 50.588C2.58842 50.3848 2.46585 50.1327 2.42025 49.8618C2.37465 49.5908 2.40796 49.3125 2.51618 49.06L8.62685 34.7492C8.77593 34.3998 9.05771 34.1239 9.4102 33.9822C9.76269 33.8406 10.157 33.8447 10.5065 33.9938C10.8559 34.1429 11.1318 34.4247 11.2734 34.7771C11.4151 35.1296 11.4109 35.524 11.2619 35.8734L6.37993 47.3057L8.83021 46.5238C9.15112 46.4207 9.4981 46.4341 9.81008 46.5617C10.1221 46.6893 10.379 46.9228 10.5358 47.2212L11.7846 49.5998L17.0231 37.284C17.0932 37.106 17.1982 36.9438 17.332 36.8071C17.4658 36.6704 17.6256 36.5618 17.802 36.4879C17.9784 36.4139 18.1679 36.3761 18.3592 36.3765C18.5505 36.377 18.7397 36.4158 18.9158 36.4906C19.0918 36.5654 19.2511 36.6748 19.3842 36.8122C19.5173 36.9496 19.6216 37.1122 19.6907 37.2906C19.7599 37.4689 19.7927 37.6593 19.7871 37.8505C19.7815 38.0417 19.7377 38.2299 19.6581 38.4039L13.2367 53.4994C13.1308 53.7485 12.9565 53.9625 12.734 54.1167C12.5115 54.2708 12.2498 54.3586 11.9793 54.3701L11.9206 54.3715Z" fill="white"></path><path d="M28.0642 54.3728H28.0055C27.7345 54.3618 27.4723 54.2742 27.2492 54.1201C27.0261 53.9659 26.8513 53.7516 26.7453 53.5021L20.3425 38.4008C20.1939 38.051 20.1905 37.6565 20.3328 37.3042C20.4752 36.9518 20.7516 36.6704 21.1015 36.5219C21.4513 36.3734 21.8457 36.37 22.1981 36.5123C22.5504 36.6546 22.8318 36.9311 22.9803 37.2809L28.206 49.5968L29.4533 47.221C29.61 46.9229 29.8668 46.6896 30.1785 46.5621C30.4901 46.4345 30.8368 46.4209 31.1575 46.5236L33.6049 47.3055L28.7287 35.9047C28.6492 35.731 28.6053 35.5432 28.5996 35.3523C28.5938 35.1613 28.6263 34.9712 28.6951 34.793C28.7639 34.6148 28.8677 34.4522 29.0003 34.3148C29.1329 34.1773 29.2917 34.0677 29.4673 33.9926C29.6429 33.9174 29.8318 33.8781 30.0228 33.877C30.2138 33.8759 30.4031 33.913 30.5795 33.9862C30.7559 34.0593 30.916 34.167 31.0502 34.303C31.1843 34.4389 31.29 34.6003 31.3608 34.7777L37.4658 49.0612C37.5737 49.3135 37.6068 49.5914 37.5613 49.8619C37.5157 50.1325 37.3934 50.3843 37.209 50.5873C37.0245 50.7904 36.7855 50.9361 36.5206 51.0073C36.2556 51.0785 35.9758 51.072 35.7144 50.9888L31.4267 49.6183L29.333 53.6066C29.2115 53.8379 29.0291 54.0316 28.8054 54.1666C28.5818 54.3017 28.3255 54.3729 28.0642 54.3728Z" fill="white"></path><path d="M19.998 40.0183C19.2196 40.0183 18.4635 39.7583 17.8499 39.2794L15.5657 37.5022C15.4296 37.4024 15.2609 37.3574 15.0931 37.3761L12.229 37.7743C11.4575 37.8844 10.6714 37.7326 9.99633 37.3432C9.32131 36.9537 8.7964 36.3491 8.50558 35.6261L7.42149 32.9496C7.39013 32.8696 7.34304 32.7967 7.28303 32.7352C7.22301 32.6737 7.15128 32.6249 7.07207 32.5916L4.39552 31.5075C3.67312 31.2158 3.06915 30.6908 2.67984 30.016C2.29053 29.3412 2.1383 28.5555 2.2474 27.7841L2.64409 24.9199C2.65614 24.8364 2.65105 24.7513 2.62914 24.6698C2.60722 24.5883 2.56894 24.5121 2.51663 24.4459L0.739425 22.1546C0.260271 21.5411 0 20.7849 0 20.0065C0 19.228 0.260271 18.4719 0.739425 17.8584L2.51377 15.567C2.56601 15.5005 2.60434 15.4241 2.62648 15.3424C2.64862 15.2607 2.65412 15.1754 2.64266 15.0916L2.24597 12.2274C2.13686 11.4561 2.2891 10.6704 2.6784 9.99557C3.06771 9.32077 3.67169 8.7957 4.39408 8.50404L7.07207 7.41853C7.15062 7.38712 7.22197 7.34008 7.2818 7.28026C7.34162 7.22044 7.38866 7.14909 7.42006 7.07053L8.50558 4.39255C8.79682 3.66985 9.32181 3.06557 9.99672 2.6762C10.6716 2.28683 11.4575 2.13482 12.229 2.24443L15.0931 2.64255C15.177 2.65427 15.2623 2.64889 15.344 2.62674C15.4257 2.60459 15.5021 2.56612 15.5686 2.51366L17.8513 0.73789C18.4652 0.259677 19.2212 0 19.9994 0C20.7776 0 21.5336 0.259677 22.1475 0.73789L24.4317 2.5151C24.4983 2.5673 24.5747 2.60551 24.6564 2.62741C24.7381 2.64931 24.8234 2.65446 24.9071 2.64255L27.7713 2.24443C28.5427 2.13533 29.3284 2.28756 30.0032 2.67687C30.678 3.06618 31.203 3.67016 31.4947 4.39255L32.5788 7.07053C32.6109 7.14928 32.6585 7.22078 32.7188 7.28081C32.7791 7.34083 32.8508 7.38814 32.9296 7.41996L35.6062 8.50404C36.3281 8.79633 36.9317 9.32152 37.3209 9.99615C37.7101 10.6708 37.8626 11.4562 37.7543 12.2274L37.3562 15.0916C37.3342 15.2602 37.38 15.4307 37.4836 15.5656L39.2594 17.8569C39.7393 18.4702 40 19.2264 40 20.005C40 20.7837 39.7393 21.5399 39.2594 22.1532L37.4822 24.4373C37.3794 24.5725 37.3341 24.7429 37.3562 24.9113L37.7543 27.7755C37.8626 28.5468 37.7101 29.3322 37.3209 30.0068C36.9317 30.6814 36.3281 31.2066 35.6062 31.4989L32.9225 32.5916C32.8438 32.6237 32.7722 32.6711 32.712 32.7311C32.6517 32.7911 32.604 32.8624 32.5716 32.941L31.489 35.6175C31.1967 36.3395 30.6715 36.943 29.9969 37.3322C29.3222 37.7214 28.5369 37.874 27.7656 37.7657L24.9014 37.3675C24.7323 37.3458 24.5615 37.3916 24.426 37.495L22.1432 39.2708C21.5316 39.7524 20.7765 40.0156 19.998 40.0183ZM15.1733 34.5063C15.9508 34.5076 16.706 34.7659 17.3214 35.2409L19.6128 37.0195C19.7239 37.1055 19.8604 37.1521 20.0009 37.1521C20.1413 37.1521 20.2778 37.1055 20.3889 37.0195L22.6717 35.2423C23.0412 34.9563 23.4641 34.7469 23.9155 34.6261C24.367 34.5054 24.838 34.4759 25.301 34.5392L28.1651 34.9359C28.3049 34.9589 28.4483 34.9329 28.571 34.8621C28.6937 34.7914 28.7881 34.6803 28.8382 34.5478L29.9223 31.8698C30.0992 31.4358 30.3611 31.0415 30.6926 30.7103C31.0241 30.379 31.4186 30.1174 31.8527 29.9408L34.5307 28.8567C34.6611 28.8038 34.7702 28.7089 34.8405 28.5869C34.9108 28.465 34.9384 28.323 34.9188 28.1836L34.5221 25.3195C34.4586 24.8574 34.4879 24.3872 34.6081 23.9365C34.7283 23.4858 34.9372 23.0636 35.2224 22.6945L37.001 20.4032C37.0873 20.2925 37.1342 20.1561 37.1342 20.0158C37.1342 19.8754 37.0873 19.7391 37.001 19.6284L35.2253 17.3371C34.9399 16.9693 34.7306 16.5485 34.6094 16.0991C34.4882 15.6496 34.4575 15.1806 34.5192 14.7193L34.9159 11.8551C34.9355 11.7157 34.9079 11.5738 34.8376 11.4518C34.7673 11.3299 34.6583 11.2349 34.5278 11.182L31.8499 10.0965C31.416 9.92016 31.0218 9.65876 30.6905 9.32772C30.3592 8.99667 30.0975 8.60267 29.9208 8.16893L28.8353 5.49095C28.7835 5.35962 28.6888 5.24967 28.5666 5.17895C28.4444 5.10824 28.3019 5.08092 28.1623 5.10143L25.2981 5.49955C24.8356 5.56298 24.365 5.53346 23.914 5.41272C23.463 5.29198 23.0407 5.08245 22.6717 4.79639L20.3803 3.01919C20.2695 2.93255 20.1329 2.88549 19.9923 2.88549C19.8516 2.88549 19.715 2.93255 19.6042 3.01919L17.3128 4.79496C16.9432 5.0798 16.5208 5.28869 16.07 5.40961C15.6193 5.53053 15.149 5.5611 14.6864 5.49955L11.8223 5.10143C11.6828 5.08247 11.5409 5.11045 11.419 5.18097C11.2972 5.25149 11.2022 5.36054 11.1492 5.49095L10.0637 8.16893C9.88709 8.6025 9.6256 8.99638 9.29457 9.32741C8.96354 9.65844 8.56967 9.91993 8.1361 10.0965L5.45812 11.1806C5.32771 11.2337 5.21865 11.3286 5.14813 11.4504C5.07761 11.5723 5.04963 11.7142 5.06859 11.8537L5.46671 14.7178C5.53002 15.1808 5.50018 15.6517 5.37894 16.103C5.2577 16.5543 5.0475 16.9768 4.7607 17.3457L2.99924 19.6313C2.91261 19.7421 2.86554 19.8787 2.86554 20.0194C2.86554 20.16 2.91261 20.2966 2.99924 20.4075L4.77645 22.6988C5.06229 23.0679 5.2717 23.4903 5.39243 23.9412C5.51316 24.3922 5.54279 24.8627 5.4796 25.3252L5.08148 28.1894C5.06201 28.3289 5.08977 28.471 5.16036 28.593C5.23094 28.7149 5.34029 28.8098 5.47101 28.8624L8.14899 29.948C8.58243 30.1247 8.9762 30.3863 9.3072 30.7173C9.6382 31.0483 9.89977 31.4421 10.0766 31.8755L11.1621 34.5549C11.2153 34.6848 11.3101 34.7934 11.4317 34.8636C11.5532 34.9338 11.6946 34.9618 11.8337 34.943L14.6979 34.5464C14.8553 34.5223 15.0141 34.5089 15.1733 34.5063Z" fill="white"></path><path d="M19.998 40.0183C19.2196 40.0183 18.4635 39.7583 17.8499 39.2794L15.5657 37.5022C15.4296 37.4024 15.2609 37.3574 15.0931 37.3761L12.229 37.7743C11.4575 37.8844 10.6714 37.7326 9.99633 37.3432C9.32131 36.9537 8.7964 36.3491 8.50558 35.6261L7.42149 32.9496C7.39013 32.8696 7.34304 32.7967 7.28303 32.7352C7.22301 32.6737 7.15128 32.6249 7.07207 32.5916L4.39552 31.5075C3.67312 31.2158 3.06915 30.6908 2.67984 30.016C2.29053 29.3412 2.1383 28.5555 2.2474 27.7841L2.64409 24.9199C2.65614 24.8364 2.65105 24.7513 2.62914 24.6698C2.60722 24.5883 2.56894 24.5121 2.51663 24.4459L0.739425 22.1546C0.260271 21.5411 0 20.7849 0 20.0065C0 19.228 0.260271 18.4719 0.739425 17.8584L2.51377 15.567C2.56601 15.5005 2.60434 15.4241 2.62648 15.3424C2.64862 15.2607 2.65412 15.1754 2.64266 15.0916L2.24597 12.2274C2.13686 11.4561 2.2891 10.6704 2.6784 9.99557C3.06771 9.32077 3.67169 8.7957 4.39408 8.50404L7.07207 7.41853C7.15062 7.38712 7.22197 7.34008 7.2818 7.28026C7.34162 7.22044 7.38866 7.14909 7.42006 7.07053L8.50558 4.39255C8.79682 3.66985 9.32181 3.06557 9.99672 2.6762C10.6716 2.28683 11.4575 2.13482 12.229 2.24443L15.0931 2.64255C15.177 2.65427 15.2623 2.64889 15.344 2.62674C15.4257 2.60459 15.5021 2.56612 15.5686 2.51366L17.8513 0.73789C18.4652 0.259677 19.2212 0 19.9994 0C20.7776 0 21.5336 0.259677 22.1475 0.73789L24.4317 2.5151C24.4983 2.5673 24.5747 2.60551 24.6564 2.62741C24.7381 2.64931 24.8234 2.65446 24.9071 2.64255L27.7713 2.24443C28.5427 2.13533 29.3284 2.28756 30.0032 2.67687C30.678 3.06618 31.203 3.67016 31.4947 4.39255L32.5788 7.07053C32.6109 7.14928 32.6585 7.22078 32.7188 7.28081C32.7791 7.34083 32.8508 7.38814 32.9296 7.41996L35.6062 8.50404C36.3281 8.79633 36.9317 9.32152 37.3209 9.99615C37.7101 10.6708 37.8626 11.4562 37.7543 12.2274L37.3562 15.0916C37.3342 15.2602 37.38 15.4307 37.4836 15.5656L39.2594 17.8569C39.7393 18.4702 40 19.2264 40 20.005C40 20.7837 39.7393 21.5399 39.2594 22.1532L37.4822 24.4373C37.3794 24.5725 37.3341 24.7429 37.3562 24.9113L37.7543 27.7755C37.8626 28.5468 37.7101 29.3322 37.3209 30.0068C36.9317 30.6814 36.3281 31.2066 35.6062 31.4989L32.9225 32.5916C32.8438 32.6237 32.7722 32.6711 32.712 32.7311C32.6517 32.7911 32.604 32.8624 32.5716 32.941L31.489 35.6175C31.1967 36.3395 30.6715 36.943 29.9969 37.3322C29.3222 37.7214 28.5369 37.874 27.7656 37.7657L24.9014 37.3675C24.7323 37.3458 24.5615 37.3916 24.426 37.495L22.1432 39.2708C21.5316 39.7524 20.7765 40.0156 19.998 40.0183ZM15.1733 34.5063C15.9508 34.5076 16.706 34.7659 17.3214 35.2409L19.6128 37.0195C19.7239 37.1055 19.8604 37.1521 20.0009 37.1521C20.1413 37.1521 20.2778 37.1055 20.3889 37.0195L22.6717 35.2423C23.0412 34.9563 23.4641 34.7469 23.9155 34.6261C24.367 34.5054 24.838 34.4759 25.301 34.5392L28.1651 34.9359C28.3049 34.9589 28.4483 34.9329 28.571 34.8621C28.6937 34.7914 28.7881 34.6803 28.8382 34.5478L29.9223 31.8698C30.0992 31.4358 30.3611 31.0415 30.6926 30.7103C31.0241 30.379 31.4186 30.1174 31.8527 29.9408L34.5307 28.8567C34.6611 28.8038 34.7702 28.7089 34.8405 28.5869C34.9108 28.465 34.9384 28.323 34.9188 28.1836L34.5221 25.3195C34.4586 24.8574 34.4879 24.3872 34.6081 23.9365C34.7283 23.4858 34.9372 23.0636 35.2224 22.6945L37.001 20.4032C37.0873 20.2925 37.1342 20.1561 37.1342 20.0158C37.1342 19.8754 37.0873 19.7391 37.001 19.6284L35.2253 17.3371C34.9399 16.9693 34.7306 16.5485 34.6094 16.0991C34.4882 15.6496 34.4575 15.1806 34.5192 14.7193L34.9159 11.8551C34.9355 11.7157 34.9079 11.5738 34.8376 11.4518C34.7673 11.3299 34.6583 11.2349 34.5278 11.182L31.8499 10.0965C31.416 9.92016 31.0218 9.65876 30.6905 9.32772C30.3592 8.99667 30.0975 8.60267 29.9208 8.16893L28.8353 5.49095C28.7835 5.35962 28.6888 5.24967 28.5666 5.17895C28.4444 5.10824 28.3019 5.08092 28.1623 5.10143L25.2981 5.49955C24.8356 5.56298 24.365 5.53346 23.914 5.41272C23.463 5.29198 23.0407 5.08245 22.6717 4.79639L20.3803 3.01919C20.2695 2.93255 20.1329 2.88549 19.9923 2.88549C19.8516 2.88549 19.715 2.93255 19.6042 3.01919L17.3128 4.79496C16.9432 5.0798 16.5208 5.28869 16.07 5.40961C15.6193 5.53053 15.149 5.5611 14.6864 5.49955L11.8223 5.10143C11.6828 5.08247 11.5409 5.11045 11.419 5.18097C11.2972 5.25149 11.2022 5.36054 11.1492 5.49095L10.0637 8.16893C9.88709 8.6025 9.6256 8.99638 9.29457 9.32741C8.96354 9.65844 8.56967 9.91993 8.1361 10.0965L5.45812 11.1806C5.32771 11.2337 5.21865 11.3286 5.14813 11.4504C5.07761 11.5723 5.04963 11.7142 5.06859 11.8537L5.46671 14.7178C5.53002 15.1808 5.50018 15.6517 5.37894 16.103C5.2577 16.5543 5.0475 16.9768 4.7607 17.3457L2.99924 19.6313C2.91261 19.7421 2.86554 19.8787 2.86554 20.0194C2.86554 20.16 2.91261 20.2966 2.99924 20.4075L4.77645 22.6988C5.06229 23.0679 5.2717 23.4903 5.39243 23.9412C5.51316 24.3922 5.54279 24.8627 5.4796 25.3252L5.08148 28.1894C5.06201 28.3289 5.08977 28.471 5.16036 28.593C5.23094 28.7149 5.34029 28.8098 5.47101 28.8624L8.14899 29.948C8.58243 30.1247 8.9762 30.3863 9.3072 30.7173C9.6382 31.0483 9.89977 31.4421 10.0766 31.8755L11.1621 34.5549C11.2153 34.6848 11.3101 34.7934 11.4317 34.8636C11.5532 34.9338 11.6946 34.9618 11.8337 34.943L14.6979 34.5464C14.8553 34.5223 15.0141 34.5089 15.1733 34.5063Z" fill="white"></path><path d="M14.9175 29.2687C14.709 29.2685 14.5031 29.2229 14.3141 29.1349C14.1251 29.047 13.9576 28.9188 13.8232 28.7594C13.6889 28.5999 13.591 28.4131 13.5364 28.2119C13.4817 28.0107 13.4717 27.8001 13.5069 27.5946L14.349 22.6797L10.7788 19.1983C10.5898 19.0115 10.4566 18.7758 10.3939 18.5176C10.3312 18.2594 10.3417 17.9888 10.424 17.7361C10.5063 17.4835 10.6573 17.2587 10.8601 17.087C11.0629 16.9153 11.3094 16.8034 11.5722 16.7638L16.5071 16.0477L18.7139 11.5768C18.8457 11.3535 19.0335 11.1685 19.2586 11.0399C19.4838 10.9114 19.7385 10.8438 19.9978 10.8438C20.2571 10.8438 20.5118 10.9114 20.737 11.0399C20.9621 11.1685 21.1499 11.3535 21.2817 11.5768L23.4928 16.0391L28.4263 16.7552C28.6909 16.7934 28.9396 16.9049 29.1441 17.0771C29.3486 17.2493 29.5008 17.4753 29.5835 17.7295C29.6663 17.9838 29.6762 18.2561 29.6121 18.5157C29.548 18.7753 29.4126 19.0117 29.2211 19.1983L25.6409 22.6797L26.483 27.5946C26.5279 27.8577 26.4984 28.1282 26.3977 28.3755C26.2971 28.6228 26.1293 28.837 25.9133 28.994C25.6974 29.151 25.4418 29.2444 25.1756 29.2639C24.9093 29.2833 24.6429 29.2279 24.4064 29.104L19.9914 26.784L15.5791 29.104C15.3751 29.2113 15.1481 29.2678 14.9175 29.2687ZM19.9971 23.7337C20.2291 23.7338 20.4576 23.7904 20.663 23.8984L23.1763 25.2202L22.6965 22.4233C22.6572 22.1946 22.6741 21.9597 22.7457 21.7389C22.8173 21.5182 22.9415 21.3181 23.1076 21.156L25.1411 19.1754L22.3328 18.7673C22.103 18.7339 21.8848 18.6451 21.6969 18.5087C21.5091 18.3722 21.3572 18.1921 21.2544 17.9839L19.9971 15.4377L18.7412 17.9839C18.6386 18.1924 18.4868 18.3728 18.2989 18.5095C18.111 18.6462 17.8927 18.7352 17.6628 18.7687L14.8545 19.1768L16.8866 21.1574C17.0527 21.3195 17.1769 21.5196 17.2485 21.7404C17.3201 21.9612 17.3369 22.196 17.2976 22.4248L16.8193 25.2231L19.3297 23.9012C19.5355 23.7927 19.7644 23.7352 19.9971 23.7337Z" fill="white"></path></svg>